<svg width="36" height="33" viewBox="0 0 36 33" fill="none" xmlns="http://www.w3.org/2000/svg">
<path d="M3.83333 9.33333L2.77267 8.27267L1.71201 9.33333L2.77267 10.394L3.83333 9.33333ZM31.6667 13C31.6667 13.8284 32.3382 14.5 33.1667 14.5C33.9951 14.5 34.6667 13.8284 34.6667 13H31.6667ZM33.1667 24L34.2273 25.0607L35.288 24L34.2273 22.9393L33.1667 24ZM3.5 20.3333C3.5 19.5049 2.82843 18.8333 2 18.8333C1.17157 18.8333 0.5 19.5049 0.5 20.3333H3.5ZM10.106 0.93934L2.77267 8.27267L4.89399 10.394L12.2273 3.06066L10.106 0.93934ZM2.77267 10.394L10.106 17.7273L12.2273 15.606L4.89399 8.27267L2.77267 10.394ZM3.83333 10.8333H31.1667V7.83333H3.83333V10.8333ZM31.6667 11.3333V13H34.6667V11.3333H31.6667ZM31.1667 10.8333C31.4428 10.8333 31.6667 11.0572 31.6667 11.3333H34.6667C34.6667 9.40034 33.0997 7.83333 31.1667 7.83333V10.8333ZM24.7727 17.7273L32.106 25.0607L34.2273 22.9393L26.894 15.606L24.7727 17.7273ZM32.106 22.9393L24.7727 30.2727L26.894 32.394L34.2273 25.0607L32.106 22.9393ZM33.1667 22.5H4V25.5H33.1667V22.5ZM3.5 22V20.3333H0.5V22H3.5ZM4 22.5C3.72386 22.5 3.5 22.2761 3.5 22H0.5C0.5 23.933 2.067 25.5 4 25.5V22.5Z" fill="url(#paint0_linear_69_260)"/>
<defs>
<linearGradient id="paint0_linear_69_260" x1="2" y1="16.6667" x2="33.1667" y2="16.6667" gradientUnits="userSpaceOnUse">
<stop stop-color="#A430FF"/>
<stop offset="0.497396" stop-color="#F318AD"/>
<stop offset="1" stop-color="#FF2171"/>
</linearGradient>
</defs>
</svg>
